<mxfile host="app.diagrams.net" modified="2021-07-01T13:18:43.353Z" agent="5.0 (Macintosh; Intel Mac OS X 10_14_2) AppleWebKit/537.36 (KHTML, like Gecko) Chrome/91.0.4472.114 Safari/537.36" etag="QCd3dCLuQLeDUNGvf9cZ" version="14.8.2" type="github">
  <diagram id="9pryj62CtWe-94nFA1aG" name="Page-1">
    <mxGraphModel dx="1579" dy="1621" grid="1" gridSize="10" guides="1" tooltips="1" connect="1" arrows="1" fold="1" page="1" pageScale="1" pageWidth="827" pageHeight="1169" math="0" shadow="0">
      <root>
        <mxCell id="0" />
        <mxCell id="1" parent="0" />
        <mxCell id="o3mzXMNcY-XVCZ7Jb-i--1" value="&lt;pre style=&quot;font-family: &amp;#34;jetbrains mono&amp;#34; , monospace ; font-size: 18px&quot;&gt;&lt;span style=&quot;background-color: rgb(255 , 255 , 255)&quot;&gt;CREATE TABLE `cms_content_relate` (&lt;br&gt;  `id` bigint(20) NOT NULL AUTO_INCREMENT,&lt;br&gt;  `content_id` varchar(255) DEFAULT NULL COMMENT &#39;作品id&#39;,&lt;br&gt;  `parent_id` varchar(255) DEFAULT NULL COMMENT &#39;复制来源作品id&#39;,&lt;br&gt;  `deleted` tinyint(4) NOT NULL DEFAULT &#39;0&#39; COMMENT &#39;是否删除&#39;,&lt;br&gt;  `gmt_create` datetime NOT NULL COMMENT &#39;创建时间&#39;,&lt;br&gt;  `gmt_modified` datetime NOT NULL COMMENT &#39;修改时间&#39;,&lt;br&gt;  PRIMARY KEY (`id`)&lt;br&gt;) ENGINE=InnoDB AUTO_INCREMENT=1400374043835023490 DEFAULT CHARSET=utf8mb4 ROW_FORMAT=DYNAMIC&lt;/span&gt;&lt;/pre&gt;" style="rounded=0;whiteSpace=wrap;html=1;align=left;" vertex="1" parent="1">
          <mxGeometry x="-320" y="-110" width="1020" height="220" as="geometry" />
        </mxCell>
        <mxCell id="o3mzXMNcY-XVCZ7Jb-i--6" value="&lt;pre style=&quot;font-family: &amp;#34;jetbrains mono&amp;#34; , monospace ; font-size: 18px&quot;&gt;&lt;pre style=&quot;font-family: &amp;#34;jetbrains mono&amp;#34; , monospace&quot;&gt;&lt;span style=&quot;background-color: rgb(255 , 255 , 255)&quot;&gt;CREATE TABLE `cms_content_snapshot` (&lt;br&gt;  `id` bigint(20) NOT NULL AUTO_INCREMENT COMMENT &#39;主键&#39;,&lt;br&gt;  `content_id` varchar(100) DEFAULT NULL COMMENT &#39;作品id&#39;,&lt;br&gt;  `version` varchar(30) DEFAULT NULL COMMENT &#39;作品版本&#39;,&lt;br&gt;  `snapshot` mediumtext COMMENT &#39;快照详情&#39;,&lt;br&gt;  `user_id` varchar(50) DEFAULT NULL COMMENT &#39;用户id&#39;,&lt;br&gt;  `tenant_id` varchar(50) DEFAULT NULL COMMENT &#39;租户id&#39;,&lt;br&gt;  `isv_id` varchar(50) DEFAULT NULL COMMENT &#39;组织id&#39;,&lt;br&gt;  `gmt_create` datetime DEFAULT NULL COMMENT &#39;创建时间&#39;,&lt;br&gt;  `gmt_modified` datetime DEFAULT NULL ON UPDATE CURRENT_TIMESTAMP COMMENT &#39;更新时间&#39;,&lt;br&gt;  `deleted` tinyint(2) DEFAULT &#39;0&#39; COMMENT &#39;是否删除&#39;,&lt;br&gt;  `type` varchar(2) DEFAULT &#39;0&#39; COMMENT &#39;类型：0 普通保存，1合成&#39;,&lt;br&gt;  PRIMARY KEY (`id`),&lt;br&gt;  KEY `idx_snapshot_content_id` (`content_id`,`version`)&lt;br&gt;) ENGINE=InnoDB AUTO_INCREMENT=1400341801752045546 DEFAULT CHARSET=utf8mb4 ROW_FORMAT=DYNAMIC&lt;/span&gt;&lt;/pre&gt;&lt;/pre&gt;" style="rounded=0;whiteSpace=wrap;html=1;align=left;" vertex="1" parent="1">
          <mxGeometry x="-320" y="140" width="1030" height="350" as="geometry" />
        </mxCell>
        <mxCell id="o3mzXMNcY-XVCZ7Jb-i--7" value="&lt;pre style=&quot;font-family: &amp;#34;jetbrains mono&amp;#34; , monospace ; font-size: 18px&quot;&gt;&lt;pre style=&quot;font-family: &amp;#34;jetbrains mono&amp;#34; , monospace&quot;&gt;&lt;pre style=&quot;font-family: &amp;#34;jetbrains mono&amp;#34; , monospace ; font-size: 9.8pt&quot;&gt;&lt;span style=&quot;background-color: rgb(255 , 255 , 255)&quot;&gt;CREATE TABLE `cms_data_detail` (&lt;br&gt;  `inc_id` bigint(20) NOT NULL AUTO_INCREMENT COMMENT &#39;自增id&#39;,&lt;br&gt;  `id` varchar(128) NOT NULL COMMENT &#39;作品id&#39;,&lt;br&gt;  `resource_id` varchar(64) DEFAULT NULL COMMENT &#39;资源id—版权存证使用&#39;,&lt;br&gt;  `preview_url` text COMMENT &#39;预览图地址&#39;,&lt;br&gt;  `production_url` text COMMENT &#39;文件地址&#39;,&lt;br&gt;  `media_tags` mediumtext COMMENT &#39;媒资查询标签&#39;,&lt;br&gt;  `photo_text` varchar(64) DEFAULT NULL COMMENT &#39;图文类型&#39;,&lt;br&gt;  `source` varchar(128) DEFAULT NULL COMMENT &#39;来源&#39;,&lt;br&gt;  `media_id` text COMMENT &#39;关联媒资id列表（使用”,”号隔开）&#39;,&lt;br&gt;  `security_status` varchar(64) DEFAULT NULL COMMENT &#39;安全状态&#39;,&lt;br&gt;  `deliver_status` varchar(1) DEFAULT NULL COMMENT &#39;分发状态&#39;,&lt;br&gt;  `good` int(4) DEFAULT NULL COMMENT &#39;精彩打标&#39;,&lt;br&gt;  `reference_article_id` varchar(64) DEFAULT NULL COMMENT &#39;图文引用供稿id&#39;,&lt;br&gt;  `resolution` varchar(8) DEFAULT NULL COMMENT &#39;清晰度&#39;,&lt;br&gt;  `medium_resolution` varchar(8) DEFAULT NULL COMMENT &#39;审核适配分辨率&#39;,&lt;br&gt;  `score` double DEFAULT NULL COMMENT &#39;视频分值&#39;,&lt;br&gt;  `snapshot_infos` longtext COMMENT &#39;作品快照信息&#39;,&lt;br&gt;  `medium_resolution_url` text COMMENT &#39;审核视频url&#39;,&lt;br&gt;  `article_content` longtext COMMENT &#39;图文内容--图文编辑器使用&#39;,&lt;br&gt;  `publish_time` bigint(20) DEFAULT NULL COMMENT &#39;首次发布时间&#39;,&lt;br&gt;  `data_type` int(1) DEFAULT NULL COMMENT &#39;资源数据类型&#39;,&lt;br&gt;  `dest_width` int(10) DEFAULT NULL COMMENT &#39;分辨率宽&#39;,&lt;br&gt;  `latest_editor_name` varchar(64) DEFAULT NULL COMMENT &#39;最后编辑者名称&#39;,&lt;br&gt;  `media_type` int(1) DEFAULT NULL COMMENT &#39;媒资类型&#39;,&lt;br&gt;  `current_editor` varchar(32) DEFAULT NULL COMMENT &#39;当前编辑者&#39;,&lt;br&gt;  `event_type` int(2) DEFAULT NULL COMMENT &#39;事件类型&#39;,&lt;br&gt;  `media_len_infos` longtext COMMENT &#39;作品所包含媒资数据&#39;,&lt;br&gt;  `extend_info` mediumtext COMMENT &#39;扩展字段&#39;,&lt;br&gt;  `version` bigint(20) DEFAULT NULL COMMENT &#39;数据版本号&#39;,&lt;br&gt;  `deliver_id` bigint(20) DEFAULT NULL COMMENT &#39;分发id--用于分发数据排序使用&#39;,&lt;br&gt;  `dest_height` int(10) DEFAULT NULL COMMENT &#39;分辨率高&#39;,&lt;br&gt;  `reference_image_urls` mediumtext COMMENT &#39;图文引用图片地址&#39;,&lt;br&gt;  `thumb_image_url` text COMMENT &#39;作品缩略图&#39;,&lt;br&gt;  `h5_url` text COMMENT &#39;给分发的H5url地址&#39;,&lt;br&gt;  `reference_video_urls` mediumtext COMMENT &#39;图文引用视频地址&#39;,&lt;br&gt;  `size` varchar(64) DEFAULT NULL COMMENT &#39;视频大小&#39;,&lt;br&gt;  `isv_id` varchar(64) DEFAULT NULL COMMENT &#39;组织id&#39;,&lt;br&gt;  `synthetic_status` varchar(2) DEFAULT NULL COMMENT &#39;合成状态&#39;,&lt;br&gt;  `user_thumb_image_url` text COMMENT &#39;用户设置的封面&#39;,&lt;br&gt;  `hash` text COMMENT &#39;资源hash值&#39;,&lt;br&gt;  `category_chain` varchar(16) DEFAULT NULL COMMENT &#39;用于方便分类查新&#39;,&lt;br&gt;  `sync_time` bigint(20) DEFAULT NULL COMMENT &#39;同步时间&#39;,&lt;br&gt;  `gmt_modified` bigint(20) DEFAULT NULL COMMENT &#39;修改时间&#39;,&lt;br&gt;  `scores` double DEFAULT NULL COMMENT &#39;精彩打分&#39;,&lt;br&gt;  `scheduler_id` int(32) DEFAULT NULL COMMENT &#39;对应调度id&#39;,&lt;br&gt;  `theme_id` int(32) DEFAULT NULL COMMENT &#39;对应主题id&#39;,&lt;br&gt;  `safe_group_id` varchar(32) DEFAULT NULL COMMENT &#39;安全审核组id&#39;,&lt;br&gt;  `title` text COMMENT &#39;作品标题&#39;,&lt;br&gt;  `content` longtext COMMENT &#39;新闻内容&#39;,&lt;br&gt;  `platform` int(32) DEFAULT NULL COMMENT &#39;平台&#39;,&lt;br&gt;  `duration` int(12) DEFAULT NULL COMMENT &#39;视频时长（秒）&#39;,&lt;br&gt;  `task_type` int(1) DEFAULT NULL COMMENT &#39;任务类型&#39;,&lt;br&gt;  `gif_result` text COMMENT &#39;Gif动态图&#39;,&lt;br&gt;  `copyright_status` varchar(1) DEFAULT NULL COMMENT &#39;存证状态&#39;,&lt;br&gt;  `tenant_name` varchar(256) DEFAULT NULL COMMENT &#39;租户名称&#39;,&lt;br&gt;  `image_url` text COMMENT &#39;图片地址列表&#39;,&lt;br&gt;  `extend_info_two` mediumtext COMMENT &#39;扩展字段&#39;,&lt;br&gt;  `reference_article_source` varchar(128) DEFAULT NULL COMMENT &#39;图文引用供稿来源&#39;,&lt;br&gt;  `channel_id` text COMMENT &#39;渠道id列表（使用”,”号隔开）&#39;,&lt;br&gt;  `product_type` varchar(1) DEFAULT NULL COMMENT &#39;成品类型&#39;,&lt;br&gt;  `approval_status` varchar(1) DEFAULT NULL COMMENT &#39;待审核稿件合成结果&#39;,&lt;br&gt;  `summary` mediumtext COMMENT &#39;简介&#39;,&lt;br&gt;  `operate_status` int(1) DEFAULT NULL COMMENT &#39;作品操作状态&#39;,&lt;br&gt;  `deliver_channel_id` text COMMENT &#39;分发渠道id列表（使用”,”号隔开）&#39;,&lt;br&gt;  `has_mediatags` tinyint(1) DEFAULT &#39;0&#39; COMMENT &#39;是否拥有查看媒资标签权限&#39;,&lt;br&gt;  `external_id` varchar(64) DEFAULT NULL COMMENT &#39;直播流id&#39;,&lt;br&gt;  `article_tags` mediumtext COMMENT &#39;作品标签&#39;,&lt;br&gt;  `gmt_create` bigint(20) DEFAULT NULL COMMENT &#39;生成时间&#39;,&lt;br&gt;  `user_name` text COMMENT &#39;创建者&#39;,&lt;br&gt;  `user_id` varchar(32) DEFAULT NULL COMMENT &#39;所属用户id&#39;,&lt;br&gt;  `uu_id` text COMMENT &#39;编辑器标识id&#39;,&lt;br&gt;  `url` text COMMENT &#39;视频url&#39;,&lt;br&gt;  `scheduler_detail_id` bigint(20) DEFAULT NULL COMMENT &#39;对应调度明细id&#39;,&lt;br&gt;  `layout` varchar(1) DEFAULT NULL COMMENT &#39;视频排版类型&#39;,&lt;br&gt;  `theme_name` varchar(128) DEFAULT NULL COMMENT &#39;对应主题名称&#39;,&lt;br&gt;  `deleted` tinyint(1) DEFAULT &#39;0&#39; COMMENT &#39;是否删除&#39;,&lt;br&gt;  `image_urls` text COMMENT &#39;图文地址列表&#39;,&lt;br&gt;  `public_url` text COMMENT &#39;视频url 开放地址&#39;,&lt;br&gt;  `tenant_id` varchar(32) DEFAULT NULL COMMENT &#39;所属租户id&#39;,&lt;br&gt;  `outer_id` text COMMENT &#39;资源标识id&#39;,&lt;br&gt;  `original_article_url` varchar(256) DEFAULT NULL COMMENT &#39;图文原始链接&#39;,&lt;br&gt;  `category_id` varchar(16) DEFAULT NULL COMMENT &#39;标签/类目id&#39;,&lt;br&gt;  `external_topic_id` varchar(64) DEFAULT NULL COMMENT &#39;直播流组id&#39;,&lt;br&gt;  `video_template_id` varchar(64) DEFAULT NULL COMMENT &#39;视频模版id&#39;,&lt;br&gt;  `from_source` varchar(255) DEFAULT NULL COMMENT &#39;作品来源全称&#39;,&lt;br&gt;  PRIMARY KEY (`inc_id`),&lt;br&gt;  UNIQUE KEY `id` (`id`),&lt;br&gt;  KEY `resource_id` (`resource_id`),&lt;br&gt;  KEY `security_status` (`security_status`),&lt;br&gt;  KEY `deliver_status` (`deliver_status`),&lt;br&gt;  KEY `publish_time` (`publish_time`),&lt;br&gt;  KEY `latest_editor_name` (`latest_editor_name`),&lt;br&gt;  KEY `media_type` (`media_type`),&lt;br&gt;  KEY `current_editor` (`current_editor`),&lt;br&gt;  KEY `size` (`size`),&lt;br&gt;  KEY `synthetic_status` (`synthetic_status`),&lt;br&gt;  KEY `sync_time` (`sync_time`),&lt;br&gt;  KEY `gmt_modified` (`gmt_modified`),&lt;br&gt;  KEY `duration` (`duration`),&lt;br&gt;  KEY `task_type` (`task_type`),&lt;br&gt;  KEY `approval_status` (`approval_status`),&lt;br&gt;  KEY `user_id` (`user_id`),&lt;br&gt;  KEY `deleted` (`deleted`),&lt;br&gt;  KEY `tenant_id` (`tenant_id`)&lt;br&gt;) ENGINE=InnoDB AUTO_INCREMENT=113867 DEFAULT CHARSET=utf8mb4 ROW_FORMAT=DYNAMIC COMMENT=&#39;作品详情表&#39;&lt;/span&gt;&lt;/pre&gt;&lt;/pre&gt;&lt;/pre&gt;" style="rounded=0;whiteSpace=wrap;html=1;align=left;" vertex="1" parent="1">
          <mxGeometry x="-320" y="540" width="1200" height="1600" as="geometry" />
        </mxCell>
      </root>
    </mxGraphModel>
  </diagram>
</mxfile>
